<svg xmlns="http://www.w3.org/2000/svg" style="display:none" aria-hidden="true">
<defs>
<symbol id="ic-arrow-right" viewBox="0 0 24 24" fill="none" stroke="currentColor" stroke-width="2" stroke-linecap="round" stroke-linejoin="round"><line x1="5" y1="12" x2="19" y2="12"/><polyline points="12 5 19 12 12 19"/></symbol>
<symbol id="ic-check" viewBox="0 0 24 24" fill="none" stroke="currentColor" stroke-width="2" stroke-linecap="round" stroke-linejoin="round"><polyline points="20 6 9 17 4 12"/></symbol>
<symbol id="ic-list" viewBox="0 0 24 24" fill="none" stroke="currentColor" stroke-width="2" stroke-linecap="round" stroke-linejoin="round"><line x1="8" y1="6" x2="21" y2="6"/><line x1="8" y1="12" x2="21" y2="12"/><line x1="8" y1="18" x2="21" y2="18"/><line x1="3" y1="6" x2="3.01" y2="6"/><line x1="3" y1="12" x2="3.01" y2="12"/><line x1="3" y1="18" x2="3.01" y2="18"/></symbol>
<symbol id="ic-shield-check" viewBox="0 0 24 24" fill="none" stroke="currentColor" stroke-width="2" stroke-linecap="round" stroke-linejoin="round"><path d="M12 22s8-4 8-10V5l-8-3-8 3v7c0 6 8 10 8 10z"/><polyline points="9 12 11 14 15 10"/></symbol>
<symbol id="ic-recycle" viewBox="0 0 24 24" fill="none" stroke="currentColor" stroke-width="2" stroke-linecap="round" stroke-linejoin="round"><path d="M7 19H4.815a1.83 1.83 0 0 1-1.57-.881 1.785 1.785 0 0 1-.004-1.784L7.196 9.5"/><path d="M11 19h8.203a1.83 1.83 0 0 0 1.556-.89 1.784 1.784 0 0 0 0-1.775l-1.226-2.12"/><path d="m14 16-3 3 3 3"/><path d="M8.293 13.596 7.196 9.5 3.1 10.598"/><path d="m9.344 5.811 1.093-1.892A1.83 1.83 0 0 1 11.985 3a1.784 1.784 0 0 1 1.546.888l3.943 6.843"/><path d="m13.378 9.633 4.096 1.098 1.097-4.096"/></symbol>
<symbol id="ic-shield-star" viewBox="0 0 24 24" fill="none" stroke="currentColor" stroke-width="2" stroke-linecap="round" stroke-linejoin="round"><path d="M12 22s8-4 8-10V5l-8-3-8 3v7c0 6 8 10 8 10z"/><polygon points="12 7 13.5 10.5 17 11 14.5 13.5 15.2 17 12 15 8.8 17 9.5 13.5 7 11 10.5 10.5 12 7"/></symbol>
<symbol id="ic-lock-key" viewBox="0 0 24 24" fill="none" stroke="currentColor" stroke-width="2" stroke-linecap="round" stroke-linejoin="round"><circle cx="8" cy="15" r="4"/><line x1="10.85" y1="12.15" x2="19" y2="4"/><line x1="18" y1="5" x2="20" y2="7"/><line x1="15" y1="8" x2="17" y2="10"/></symbol>
<symbol id="ic-leaf" viewBox="0 0 24 24" fill="none" stroke="currentColor" stroke-width="2" stroke-linecap="round" stroke-linejoin="round"><path d="M11 20A7 7 0 0 1 9.8 6.1C15.5 5 17 4.48 19.2 2.5c1 1.5.5 7-2 9.5C15 14 11 14 9 17"/><path d="M2 21c0-3 1.85-5.36 5.08-6"/></symbol>
<symbol id="ic-buildings" viewBox="0 0 24 24" fill="none" stroke="currentColor" stroke-width="2" stroke-linecap="round" stroke-linejoin="round"><rect x="4" y="2" width="16" height="20" rx="2"/><line x1="9" y1="6" x2="9" y2="6"/><line x1="15" y1="6" x2="15" y2="6"/><line x1="9" y1="10" x2="9" y2="10"/><line x1="15" y1="10" x2="15" y2="10"/><line x1="9" y1="14" x2="9" y2="14"/><line x1="15" y1="14" x2="15" y2="14"/><path d="M10 22v-4h4v4"/></symbol>
<symbol id="ic-heartbeat" viewBox="0 0 24 24" fill="none" stroke="currentColor" stroke-width="2" stroke-linecap="round" stroke-linejoin="round"><polyline points="22 12 18 12 15 21 9 3 6 12 2 12"/></symbol>
<symbol id="ic-graduation-cap" viewBox="0 0 24 24" fill="none" stroke="currentColor" stroke-width="2" stroke-linecap="round" stroke-linejoin="round"><path d="M22 10v6M2 10l10-5 10 5-10 5z"/><path d="M6 12v5c3 3 9 3 12 0v-5"/></symbol>
<symbol id="ic-cube" viewBox="0 0 24 24" fill="none" stroke="currentColor" stroke-width="2" stroke-linecap="round" stroke-linejoin="round"><path d="M21 16V8a2 2 0 0 0-1-1.73l-7-4a2 2 0 0 0-2 0l-7 4A2 2 0 0 0 3 8v8a2 2 0 0 0 1 1.73l7 4a2 2 0 0 0 2 0l7-4A2 2 0 0 0 21 16z"/><polyline points="3.27 6.96 12 12.01 20.73 6.96"/><line x1="12" y1="22.08" x2="12" y2="12"/></symbol>
<symbol id="ic-cloud" viewBox="0 0 24 24" fill="none" stroke="currentColor" stroke-width="2" stroke-linecap="round" stroke-linejoin="round"><path d="M18 10h-1.26A8 8 0 1 0 9 20h9a5 5 0 0 0 0-10z"/></symbol>
<symbol id="ic-bank" viewBox="0 0 24 24" fill="none" stroke="currentColor" stroke-width="2" stroke-linecap="round" stroke-linejoin="round"><polygon points="12 2 2 7 22 7 12 2"/><polyline points="2 17 12 22 22 17"/><polyline points="2 12 12 17 22 12"/></symbol>
<symbol id="ic-clipboard-text" viewBox="0 0 24 24" fill="none" stroke="currentColor" stroke-width="2" stroke-linecap="round" stroke-linejoin="round"><path d="M9 2h6a1 1 0 0 1 1 1v2a1 1 0 0 1-1 1H9a1 1 0 0 1-1-1V3a1 1 0 0 1 1-1z"/><path d="M16 4h2a2 2 0 0 1 2 2v14a2 2 0 0 1-2 2H6a2 2 0 0 1-2-2V6a2 2 0 0 1 2-2h2"/><line x1="9" y1="10" x2="15" y2="10"/><line x1="9" y1="14" x2="13" y2="14"/></symbol>
<symbol id="ic-truck" viewBox="0 0 24 24" fill="none" stroke="currentColor" stroke-width="2" stroke-linecap="round" stroke-linejoin="round"><rect x="1" y="3" width="15" height="13"/><polygon points="16 8 20 8 23 11 23 16 16 16 16 8"/><circle cx="5.5" cy="18.5" r="2.5"/><circle cx="18.5" cy="18.5" r="2.5"/></symbol>
<symbol id="ic-trend-up" viewBox="0 0 24 24" fill="none" stroke="currentColor" stroke-width="2" stroke-linecap="round" stroke-linejoin="round"><polyline points="23 6 13.5 15.5 8.5 10.5 1 18"/><polyline points="17 6 23 6 23 12"/></symbol>
<symbol id="ic-chart-line-up" viewBox="0 0 24 24" fill="none" stroke="currentColor" stroke-width="2" stroke-linecap="round" stroke-linejoin="round"><polyline points="3 17 9 11 13 15 21 7"/><polyline points="14 7 21 7 21 14"/></symbol>
<symbol id="ic-path" viewBox="0 0 24 24" fill="none" stroke="currentColor" stroke-width="2" stroke-linecap="round" stroke-linejoin="round"><circle cx="6" cy="6" r="2"/><circle cx="18" cy="18" r="2"/><path d="M8 6h4a4 4 0 0 1 4 4v6"/></symbol>
<symbol id="ic-arrows-clockwise" viewBox="0 0 24 24" fill="none" stroke="currentColor" stroke-width="2" stroke-linecap="round" stroke-linejoin="round"><polyline points="23 4 23 10 17 10"/><polyline points="1 20 1 14 7 14"/><path d="M3.51 9a9 9 0 0 1 14.85-3.36L23 10M1 14l4.64 4.36A9 9 0 0 0 20.49 15"/></symbol>
<symbol id="ic-eraser" viewBox="0 0 24 24" fill="none" stroke="currentColor" stroke-width="2" stroke-linecap="round" stroke-linejoin="round"><path d="M20 20H7L3 16c-1-1-1-2 0-3l9-9c1-1 2-1 3 0l6 6c1 1 1 2 0 3l-7 7"/><line x1="22" y1="20" x2="20" y2="20"/></symbol>
<symbol id="ic-coins" viewBox="0 0 24 24" fill="none" stroke="currentColor" stroke-width="2" stroke-linecap="round" stroke-linejoin="round"><circle cx="8" cy="8" r="6"/><path d="M18.09 10.37A6 6 0 1 1 10.34 18"/><path d="M7 6h1v4"/><path d="m16.71 13.88.7.71-2.82 2.82"/></symbol>
<symbol id="ic-certificate" viewBox="0 0 24 24" fill="none" stroke="currentColor" stroke-width="2" stroke-linecap="round" stroke-linejoin="round"><circle cx="12" cy="8" r="6"/><polyline points="8.21 13.89 7 23 12 20 17 23 15.79 13.88"/></symbol>
<symbol id="ic-envelope-simple" viewBox="0 0 24 24" fill="none" stroke="currentColor" stroke-width="2" stroke-linecap="round" stroke-linejoin="round"><rect x="2" y="4" width="20" height="16" rx="2"/><polyline points="22 6 12 13 2 6"/></symbol>
<symbol id="ic-phone" viewBox="0 0 24 24" fill="none" stroke="currentColor" stroke-width="2" stroke-linecap="round" stroke-linejoin="round"><path d="M22 16.92v3a2 2 0 0 1-2.18 2 19.79 19.79 0 0 1-8.63-3.07 19.5 19.5 0 0 1-6-6 19.79 19.79 0 0 1-3.07-8.67A2 2 0 0 1 4.11 2h3a2 2 0 0 1 2 1.72c.13.96.37 1.9.7 2.81a2 2 0 0 1-.45 2.11L8.09 9.91a16 16 0 0 0 6 6l1.27-1.27a2 2 0 0 1 2.11-.45c.91.33 1.85.57 2.81.7A2 2 0 0 1 22 16.92z"/></symbol>
<symbol id="ic-map-pin" viewBox="0 0 24 24" fill="none" stroke="currentColor" stroke-width="2" stroke-linecap="round" stroke-linejoin="round"><path d="M21 10c0 7-9 13-9 13s-9-6-9-13a9 9 0 0 1 18 0z"/><circle cx="12" cy="10" r="3"/></symbol>
<symbol id="ic-hard-drives" viewBox="0 0 24 24" fill="none" stroke="currentColor" stroke-width="2" stroke-linecap="round" stroke-linejoin="round"><line x1="22" y1="12" x2="2" y2="12"/><path d="M5.45 5.11 2 12v6a2 2 0 0 0 2 2h16a2 2 0 0 0 2-2v-6l-3.45-6.89A2 2 0 0 0 16.76 4H7.24a2 2 0 0 0-1.79 1.11z"/><line x1="6" y1="16" x2="6.01" y2="16"/><line x1="10" y1="16" x2="10.01" y2="16"/></symbol>
<symbol id="ic-chat-circle-text" viewBox="0 0 24 24" fill="none" stroke="currentColor" stroke-width="2" stroke-linecap="round" stroke-linejoin="round"><path d="M21 11.5a8.38 8.38 0 0 1-.9 3.8 8.5 8.5 0 0 1-7.6 4.7 8.38 8.38 0 0 1-3.8-.9L3 21l1.9-5.7a8.38 8.38 0 0 1-.9-3.8 8.5 8.5 0 0 1 4.7-7.6 8.38 8.38 0 0 1 3.8-.9h.5a8.48 8.48 0 0 1 8 8v.5z"/></symbol>
<symbol id="ic-arrow-left" viewBox="0 0 24 24" fill="none" stroke="currentColor" stroke-width="2" stroke-linecap="round" stroke-linejoin="round"><line x1="19" y1="12" x2="5" y2="12"/><polyline points="12 19 5 12 12 5"/></symbol>
</defs>
</svg>
